<svg width="100" height="100" xmlns="http://www.w3.org/2000/svg"><g fill-rule="evenodd"><path d="M50 100c27.614 0 50-22.386 50-50S77.614 0 50 0 0 22.386 0 50s22.386 50 50 50zm0-3c25.957 0 47-21.043 47-47S75.957 3 50 3 3 24.043 3 50s21.043 47 47 47z"/><path d="M30.44 34.04c0-1.5-.9-2.94-2.36-3.42 1.32-.48 2.04-1.78 2.04-3.14 0-.98-.34-1.84-.88-2.42-.8-.86-2.06-1.24-3.4-1.24h-4.76V38h4.76c1.4 0 2.76-.4 3.56-1.26.62-.66 1.04-1.56 1.04-2.7zm-2.14-6.42c0 1.58-1.04 2.24-2.52 2.24h-2.96V25.4h2.92c1.36 0 2.56.74 2.56 2.22zm.32 6.3c0 1.78-1.22 2.44-2.78 2.44h-3.02v-4.94h3c1.58 0 2.8.94 2.8 2.5zM43.36 38l-4.68-14.18h-2.16L31.86 38h1.82l1.16-3.66h5.5L41.52 38h1.84zm-3.54-5.34h-4.46l2.2-7.02 2.26 7.02zM55.88 38l-4.94-8.58 4.92-5.6h-2.2l-6.38 7.28v-7.28h-1.8V38h1.8v-4.4l2.4-2.74 4.1 7.14h2.1zm11.7 0v-1.64h-7.6v-4.9h5.74v-1.68h-5.74v-4.32h7.6v-1.64H58.2V38h9.38zm12.46 0l-2.84-6.24c.68-.22 1.28-.56 1.7-1 .68-.72 1.08-1.56 1.08-2.8 0-1.24-.44-2.16-1.12-2.88-.78-.8-1.94-1.26-3.6-1.26H70.4V38h1.78v-5.9h3.24L78.1 38h1.94zm-1.9-10.04c0 1.8-1.2 2.48-2.88 2.48h-3.08v-4.98h3.08c1.68 0 2.88.7 2.88 2.5zm-47.7 46.08c0-1.5-.9-2.94-2.36-3.42 1.32-.48 2.04-1.78 2.04-3.14 0-.98-.34-1.84-.88-2.42-.8-.86-2.06-1.24-3.4-1.24h-4.76V78h4.76c1.4 0 2.76-.4 3.56-1.26.62-.66 1.04-1.56 1.04-2.7zm-2.14-6.42c0 1.58-1.04 2.24-2.52 2.24h-2.96V65.4h2.92c1.36 0 2.56.74 2.56 2.22zm.32 6.3c0 1.78-1.22 2.44-2.78 2.44h-3.02v-4.94h3c1.58 0 2.8.94 2.8 2.5zM42.84 78L40 71.76c.68-.22 1.28-.56 1.7-1 .68-.72 1.08-1.56 1.08-2.8 0-1.24-.44-2.16-1.12-2.88-.78-.8-1.94-1.26-3.6-1.26H33.2V78h1.78v-5.9h3.24L40.9 78h1.94zm-1.9-10.04c0 1.8-1.2 2.48-2.88 2.48h-3.08v-4.98h3.08c1.68 0 2.88.7 2.88 2.5zm14.48 2.96c0-2.26-.18-4.32-1.72-5.82-1.02-1-2.28-1.54-3.7-1.54-1.42 0-2.68.54-3.7 1.54-1.54 1.5-1.72 3.56-1.72 5.82 0 2.26.18 4.32 1.72 5.82 1.02 1 2.28 1.54 3.7 1.54 1.42 0 2.68-.54 3.7-1.54 1.54-1.5 1.72-3.56 1.72-5.82zm-1.84 0c0 1.48.04 3.38-1.12 4.58-.68.7-1.5 1.08-2.46 1.08s-1.78-.38-2.46-1.08c-1.16-1.2-1.12-3.1-1.12-4.58s-.04-3.38 1.12-4.58c.68-.7 1.5-1.08 2.46-1.08s1.78.38 2.46 1.08c1.16 1.2 1.12 3.1 1.12 4.58zm14.3-7.1H66.2l-.7 11.54-2.24-7.48H61.6l-2.24 7.5-.72-11.56h-1.68L57.94 78h2.16l2.3-7.82L64.76 78h2.14l.98-14.18zM79.6 78V63.82h-1.72v11.46l-5.66-11.46H70V78h1.74V66.6L77.42 78h2.18zM56.02 51.44v-1.38H51.2v-4.94h-1.4v4.94H45v1.38h4.8v5.26h1.4v-5.26z"/></g></svg>